# xmcd CD database file
#
# Track frame offsets:
#	150
#	21387
#	40025
#	62082
#	80052
#	98545
#	120797
#	140265
#	163022
#	181255
#
# Disc length: 2678 seconds
#
# Revision: 2
# Processed by: cddbd v1.5.2PL0 Copyright (c) Steve Scherf et al.
# Submitted via: CDex 1.70beta2
#
DISCID=750a740a
DTITLE=小比類巻かほる - KOHHY 1
DYEAR=1994
DGENRE=JPop
TTITLE0=SHOW ME YOUR LOVE
TTITLE1=SUMMER FACTOR
TTITLE2=MISTER～今なら素直にいえる～
TTITLE3=I’LL BE THERE
TTITLE4=THIS IS POWER OF LOVE
TTITLE5=君はインスピレイション
TTITLE6=WILD
TTITLE7=TIME
TTITLE8=HELLO AGAIN
TTITLE9=セレブレイション(OH,YES)
EXTD=YEAR: 1994
EXTT0=
EXTT1=
EXTT2=
EXTT3=
EXTT4=
EXTT5=
EXTT6=
EXTT7=
EXTT8=
EXTT9=
PLAYORDER=
